<?xml version="1.0" encoding="UTF-8"?>
<svg version="1.1" xmlns="http://www.w3.org/2000/svg" width="343" height="147">
<path d="M0 0 C3.34601821 3.06718336 4.13828273 6.75120621 5.25 11.0625 C4.59 11.7225 3.93 12.3825 3.25 13.0625 C1.25 13 1.25 13 -0.75 12.0625 C-1.9375 9.5625 -1.9375 9.5625 -2.75 7.0625 C-3.245 6.5675 -3.245 6.5675 -3.75 6.0625 C-6.08944736 6.34980055 -8.4239143 6.68186779 -10.75 7.0625 C-10.75586624 7.87158813 -10.76173248 8.68067627 -10.76777649 9.51428223 C-10.82584265 17.16438966 -10.89799821 24.81417657 -10.98571491 32.46399689 C-11.03031399 36.3962242 -11.06959258 40.3283504 -11.09643555 44.26074219 C-11.12257372 48.06052961 -11.16304884 51.85992575 -11.21318626 55.6594696 C-11.22978432 57.10417285 -11.24134236 58.54894366 -11.24761391 59.99372864 C-11.29026697 68.92195029 -11.73859708 75.96627968 -16.375 83.8125 C-21.48846602 88.65683623 -27.86019359 90.4761335 -34.75 91.0625 C-34.75 90.4025 -34.75 89.7425 -34.75 89.0625 C-35.595625 89.02125 -36.44125 88.98 -37.3125 88.9375 C-43.01663463 87.48553846 -46.44558956 83.99807679 -49.6875 79.1875 C-50.75 76.0625 -50.75 76.0625 -50.75 68.0625 C-39.86 68.0625 -28.97 68.0625 -17.75 68.0625 C-17.78480469 63.71707031 -17.81960937 59.37164062 -17.85546875 54.89453125 C-17.8747693 51.42398589 -17.89103497 47.95345575 -17.90525055 44.48288727 C-17.92107542 40.82238449 -17.94221351 37.16209098 -17.97631836 33.50170898 C-18.00897625 29.97444784 -18.02686644 26.44738932 -18.03463173 22.91998863 C-18.04285133 20.92305692 -18.06626061 18.92620642 -18.08988953 16.92939758 C-18.09011612 15.70850937 -18.09034271 14.48762115 -18.09057617 13.22973633 C-18.09723801 12.15718094 -18.10389984 11.08462555 -18.11076355 9.97956848 C-17.57020201 5.60868612 -15.90137764 2.98999865 -12.5 0.25 C-8.09330814 -1.65288967 -4.51499868 -1.53920409 0 0 Z M-44.75 73.0625 C-42.76198351 79.53772835 -42.76198351 79.53772835 -37.75 83.0625 C-33.28119758 84.26627334 -29.84092018 84.43300119 -25.4375 82.9375 C-22.52435864 80.9050758 -20.63344789 79.07601663 -18.75 76.0625 C-19.08 75.0725 -19.41 74.0825 -19.75 73.0625 C-28 73.0625 -36.25 73.0625 -44.75 73.0625 Z " fill="#010101" transform="translate(242.75,28.9375)"/>
<path d="M0 0 C1.29550781 0.00128906 2.59101562 0.00257812 3.92578125 0.00390625 C7.88344335 0.46008537 10.328512 1.32882954 13.6875 3.4375 C15.86667221 6.70625831 16.52829772 8.53704411 16.6875 12.4375 C14.75 14.8125 14.75 14.8125 12.6875 16.4375 C13.3475 16.9325 14.0075 17.4275 14.6875 17.9375 C16.99032139 20.81602674 17.32932047 22.80034181 17.14453125 26.46875 C16.35662774 29.86279591 14.39402463 31.40760653 11.6875 33.4375 C8.07333626 34.72652454 4.42970267 34.60499631 0.625 34.625 C-1.21771484 34.64626953 -1.21771484 34.64626953 -3.09765625 34.66796875 C-6.3125 34.4375 -6.3125 34.4375 -9.3125 32.4375 C-9.81542969 30.6184082 -9.81542969 30.6184082 -9.984375 28.42578125 C-10.04818359 27.62092285 -10.11199219 26.81606445 -10.17773438 25.98681641 C-10.39571974 21.86325986 -10.53630245 17.75438929 -10.5625 13.625 C-10.5934375 12.37686523 -10.5934375 12.37686523 -10.625 11.10351562 C-10.6469386 7.68383647 -10.57509021 5.06926685 -9.25390625 1.890625 C-6.24494399 -0.36155601 -3.70243 -0.0549322 0 0 Z M-2.3125 5.4375 C-2.3125 8.4075 -2.3125 11.3775 -2.3125 14.4375 C2.95021712 14.88461919 2.95021712 14.88461919 7.75 13.25 C9.06885516 10.70021335 8.4850116 9.12003902 7.6875 6.4375 C4.3875 6.1075 1.0875 5.7775 -2.3125 5.4375 Z M-2.3125 19.4375 C-2.3125 22.4075 -2.3125 25.3775 -2.3125 28.4375 C-0.68786158 28.49145478 0.93728541 28.53027195 2.5625 28.5625 C3.46742187 28.58570313 4.37234375 28.60890625 5.3046875 28.6328125 C7.87556994 28.68074836 7.87556994 28.68074836 9.6875 26.4375 C10.10416667 23.9375 10.10416667 23.9375 9.6875 21.4375 C5.4850546 18.63586974 2.68645065 19.29260288 -2.3125 19.4375 Z " fill="#010101" transform="translate(41.3125,54.5625)"/>
<path d="M0 0 C0.969375 0.165 1.93875 0.33 2.9375 0.5 C5.9052331 1.29133785 5.9052331 1.29133785 8 0 C15.13230769 -0.70153846 15.13230769 -0.70153846 18.9375 2.375 C22.47136715 6.8726491 22.54273142 10.40792809 22 16 C20.42044506 19.63297636 18.59805344 22.24959562 15 24 C7.97254902 23.97254902 7.97254902 23.97254902 6 22 C5.67 24.97 5.34 27.94 5 31 C3.34385343 31.38218767 1.67542976 31.71395102 0 32 C-1.88319268 30.11680732 -1.13054285 26.88069863 -1.1328125 24.375 C-1.13376923 23.71290527 -1.13472595 23.05081055 -1.13571167 22.36865234 C-1.13639326 20.96647039 -1.13454042 19.5642853 -1.13037109 18.16210938 C-1.12502246 16.00904287 -1.1303167 13.85618498 -1.13671875 11.703125 C-1.13605796 10.34374954 -1.13477679 8.9843742 -1.1328125 7.625 C-1.13168457 6.37976563 -1.13055664 5.13453125 -1.12939453 3.8515625 C-1 1 -1 1 0 0 Z M6.125 6.0625 C4.33169133 9.15097604 4.57158031 11.51143969 5 15 C6.52277007 17.60720318 6.52277007 17.60720318 9 19 C12.3321498 18.80801478 12.3321498 18.80801478 15 17 C15.09854655 15.35659133 15.12972411 13.7088539 15.125 12.0625 C15.12757813 11.16660156 15.13015625 10.27070312 15.1328125 9.34765625 C15.15421413 6.97844445 15.15421413 6.97844445 14 5 C9.89354452 4.67764442 9.89354452 4.67764442 6.125 6.0625 Z " fill="#010101" transform="translate(291,65)"/>
<path d="M0 0 C3.1992377 3.10514248 4.03092922 6.81964014 5.125 11.0625 C3.06577598 13.12172402 -1.09208124 12.47677579 -3.9375 12.625 C-5.07541992 12.68977539 -5.07541992 12.68977539 -6.23632812 12.75585938 C-8.11565438 12.86223633 -9.99530244 12.96289934 -11.875 13.0625 C-10.24150994 15.19781737 -10.24150994 15.19781737 -7.875 17.0625 C-5.04420802 17.33091804 -5.04420802 17.33091804 -2.125 16.8125 C-1.14015625 16.68359375 -0.1553125 16.5546875 0.859375 16.421875 C1.60703125 16.30328125 2.3546875 16.1846875 3.125 16.0625 C2.390625 19.84375 2.390625 19.84375 0 21.8125 C-4.10995374 23.59943641 -7.47911281 23.89070792 -11.7734375 22.40625 C-15.26428424 20.69764991 -16.80526756 19.16709867 -19 15.875 C-20.16265612 10.8091412 -19.27762012 7.60467965 -16.875 3.0625 C-12.36632852 -2.37442737 -6.30237735 -2.05512305 0 0 Z M-10.125 4.375 C-10.7025 4.931875 -11.28 5.48875 -11.875 6.0625 C-11.875 6.7225 -11.875 7.3825 -11.875 8.0625 C-8.575 8.0625 -5.275 8.0625 -1.875 8.0625 C-1.875 7.4025 -1.875 6.7425 -1.875 6.0625 C-2.535 6.0625 -3.195 6.0625 -3.875 6.0625 C-3.875 5.4025 -3.875 4.7425 -3.875 4.0625 C-6.65813821 2.96912428 -7.47446354 2.82885373 -10.125 4.375 Z " fill="#010101" transform="translate(80.875,65.9375)"/>
<path d="M0 0 C3.15944774 3.15944774 4.19842459 6.73447624 5.0625 11.0625 C4.96209264 15.48042402 3.10765796 17.93275432 0.0625 21.0625 C-3.79651543 23.48816684 -7.40178111 23.27821491 -11.78125 22.6796875 C-15.13981429 21.71835931 -16.83318506 19.75865352 -18.9375 17.0625 C-20.67971711 13.57806578 -20.52425154 9.86362955 -19.9375 6.0625 C-15.56251533 -1.83859171 -8.09579027 -2.58376285 0 0 Z M-10.5625 4.125 C-13.16965958 5.89541868 -13.16965958 5.89541868 -13.875 8.9375 C-13.94338563 12.35678126 -13.82178437 14.19511075 -11.9375 17.0625 C-9.02745097 18.14473366 -9.02745097 18.14473366 -5.9375 18.0625 C-2.61585395 16.32675255 -2.61585395 16.32675255 -2.0625 12.75 C-1.92440971 8.67633645 -2.37668243 7.17206419 -4.9375 4.0625 C-7.89671531 2.71550299 -7.89671531 2.71550299 -10.5625 4.125 Z " fill="#010101" transform="translate(254.9375,65.9375)"/>
<path d="M0 0 C4.70588235 0.70588235 4.70588235 0.70588235 6 2 C6.23678716 4.69235776 6.42198025 7.36498156 6.5625 10.0625 C6.60568359 10.82111328 6.64886719 11.57972656 6.69335938 12.36132812 C6.79973633 14.24065438 6.90039934 16.12030244 7 18 C8.66611905 18.042721 10.33382885 18.04063832 12 18 C14.15605408 15.84394592 13.40187164 10.49839613 13.51757812 7.45898438 C13.78671875 2.21328125 13.78671875 2.21328125 16 0 C18.625 0.375 18.625 0.375 21 1 C23.06218793 18.63907172 23.06218793 18.63907172 20 22.5625 C19.34 23.036875 18.68 23.51125 18 24 C17.4225 23.62875 16.845 23.2575 16.25 22.875 C15.13625 22.441875 15.13625 22.441875 14 22 C13.1028125 22.4640625 13.1028125 22.4640625 12.1875 22.9375 C8.84765968 24.55970816 6.53179766 23.88294941 3 23 C0.80078125 21.51953125 0.80078125 21.51953125 -1 19 C-1.51205909 15.92313393 -1.42242377 12.92212119 -1.3125 9.8125 C-1.30283203 8.98041016 -1.29316406 8.14832031 -1.28320312 7.29101562 C-1.16843594 1.16843594 -1.16843594 1.16843594 0 0 Z " fill="#010101" transform="translate(185,65)"/>
<path d="M0 0 C4.70588235 0.70588235 4.70588235 0.70588235 6 2 C6.23678716 4.69235776 6.42198025 7.36498156 6.5625 10.0625 C6.60568359 10.82111328 6.64886719 11.57972656 6.69335938 12.36132812 C6.79973633 14.24065438 6.90039934 16.12030244 7 18 C8.66611905 18.042721 10.33382885 18.04063832 12 18 C14.38973049 15.61026951 13.46500459 9.55501122 13.62109375 6.3203125 C14 3 14 3 16 0 C17.32 0 18.64 0 20 0 C21.20029908 2.40059817 21.11459743 3.89360649 21.09765625 6.5703125 C21.09443359 7.46621094 21.09121094 8.36210938 21.08789062 9.28515625 C21.07951172 10.22230469 21.07113281 11.15945312 21.0625 12.125 C21.05798828 13.06988281 21.05347656 14.01476562 21.04882812 14.98828125 C21.03702357 17.32558387 21.02055759 19.66276061 21 22 C19.02 22.99 19.02 22.99 17 24 C16.01 23.34 15.02 22.68 14 22 C13.484375 22.350625 12.96875 22.70125 12.4375 23.0625 C8.90035538 24.42294024 6.62938092 23.9721556 3 23 C0.67378304 20.8721106 -0.80166257 19.18492781 -1.33251953 16.01342773 C-1.42929957 13.74568387 -1.39855418 11.51800563 -1.3125 9.25 C-1.30283203 8.47011719 -1.29316406 7.69023438 -1.28320312 6.88671875 C-1.16884566 1.16884566 -1.16884566 1.16884566 0 0 Z " fill="#010101" transform="translate(264,65)"/>
<path d="M0 0 C0.84304687 -0.03996094 1.68609375 -0.07992187 2.5546875 -0.12109375 C6.42335785 0.71966592 7.80122266 2.26796624 10.125 5.4375 C10.77895114 8.36289937 10.73638211 11.14046584 10.625 14.125 C10.62886719 15.28225586 10.62886719 15.28225586 10.6328125 16.46289062 C10.59375 18.69921875 10.59375 18.69921875 10.125 22.4375 C7.125 24.4375 7.125 24.4375 4.875 24 C3.9675 23.814375 3.06 23.62875 2.125 23.4375 C0.97 23.64375 -0.185 23.85 -1.375 24.0625 C-4.875 24.4375 -4.875 24.4375 -7.75 23.4375 C-9.875 21.4375 -9.875 21.4375 -10.9375 18 C-10.875 14.4375 -10.875 14.4375 -9.0625 12.0625 C-5.86130444 9.68446901 -4.18330654 9.31880991 -0.25 9.375 C0.97589844 9.38853516 0.97589844 9.38853516 2.2265625 9.40234375 C3.16628906 9.41974609 3.16628906 9.41974609 4.125 9.4375 C3.795 8.4475 3.465 7.4575 3.125 6.4375 C-0.835 6.4375 -4.795 6.4375 -8.875 6.4375 C-7.49134448 0.9028779 -5.3456184 0.13810868 0 0 Z M-3.75 14.9375 C-4.12125 15.4325 -4.4925 15.9275 -4.875 16.4375 C-4.545 17.4275 -4.215 18.4175 -3.875 19.4375 C-0.95847826 19.60431109 -0.95847826 19.60431109 2.125 19.4375 C2.785 18.7775 3.445 18.1175 4.125 17.4375 C4.125 16.1175 4.125 14.7975 4.125 13.4375 C-0.13231568 13.03000325 -0.13231568 13.03000325 -3.75 14.9375 Z " fill="#010101" transform="translate(97.875,64.5625)"/>
<path d="M0 0 C4.70588235 0.70588235 4.70588235 0.70588235 6 2 C6.23678716 4.69235776 6.42198025 7.36498156 6.5625 10.0625 C6.60568359 10.82111328 6.64886719 11.57972656 6.69335938 12.36132812 C6.79973633 14.24065438 6.90039934 16.12030244 7 18 C9.41619823 18.25030977 9.41619823 18.25030977 12 18 C14.42479736 14.36280395 14.38662577 12.14296518 14.625 7.8125 C14.69976562 6.54019531 14.77453125 5.26789063 14.8515625 3.95703125 C14.90054688 2.98121094 14.94953125 2.00539063 15 1 C16.65614657 0.61781233 18.32457024 0.28604898 20 0 C21 1 21 1 21.11352539 3.04125977 C21.10828857 3.91580811 21.10305176 4.79035645 21.09765625 5.69140625 C21.09443359 6.63564453 21.09121094 7.57988281 21.08789062 8.55273438 C21.07951172 9.54595703 21.07113281 10.53917969 21.0625 11.5625 C21.05798828 12.55958984 21.05347656 13.55667969 21.04882812 14.58398438 C21.03700007 17.05604849 21.02051849 19.52799518 21 22 C19.02 22.99 19.02 22.99 17 24 C16.01 23.34 15.02 22.68 14 22 C13.484375 22.350625 12.96875 22.70125 12.4375 23.0625 C8.90035538 24.42294024 6.62938092 23.9721556 3 23 C-0.26382306 20.25151743 -1.23792539 17.79464445 -1.8125 13.6875 C-2.12729017 9.31704119 -1.76953929 5.30942 -1 1 C-0.67 0.67 -0.34 0.34 0 0 Z " fill="#010101" transform="translate(114,65)"/>
<path d="M0 0 C1.67542976 0.28604898 3.34385343 0.61781233 5 1 C5 3.31 5 5.62 5 8 C6.65 8.33 8.3 8.66 10 9 C9.625 10.9375 9.625 10.9375 9 13 C8.01 13.495 8.01 13.495 7 14 C6.34 13.67 5.68 13.34 5 13 C5 17.29 5 21.58 5 26 C6.65 26 8.3 26 10 26 C10.33 27.65 10.66 29.3 11 31 C8.11138291 32.44430855 6.20352299 32.37688506 3 32 C0.125 30.3125 0.125 30.3125 -2 27 C-2.18313439 23.63543796 -2.06076295 20.4163374 -1.78515625 17.05859375 C-1.70989414 13.87376115 -1.70989414 13.87376115 -3.99609375 11.59765625 C-4.65738281 11.07042969 -5.31867188 10.54320313 -6 10 C-5.67 9.34 -5.34 8.68 -5 8 C-3.68 8 -2.36 8 -1 8 C-1.020625 6.865625 -1.04125 5.73125 -1.0625 4.5625 C-1 1 -1 1 0 0 Z " fill="#010101" transform="translate(143,57)"/>
<path d="M0 0 C0.66 1.32 1.32 2.64 2 4 C1.030625 4.2475 0.06125 4.495 -0.9375 4.75 C-1.948125 5.1625 -2.95875 5.575 -4 6 C-4.96877057 8.03243548 -4.96877057 8.03243548 -5 10 C-3.35 10 -1.7 10 0 10 C0.33 10.66 0.66 11.32 1 12 C0.01 13.485 0.01 13.485 -1 15 C-2.32 15 -3.64 15 -5 15 C-5 20.61 -5 26.22 -5 32 C-6.32 32.66 -7.64 33.32 -9 34 C-11 32 -11 32 -11.1953125 28.0859375 C-11.18200376 26.51550649 -11.15813602 24.94513779 -11.125 23.375 C-11.11597656 22.57320312 -11.10695312 21.77140625 -11.09765625 20.9453125 C-11.07406223 18.96341477 -11.03819065 16.98167019 -11 15 C-12.32 14.67 -13.64 14.34 -15 14 C-15 12.68 -15 11.36 -15 10 C-13.68 10 -12.36 10 -11 10 C-11.061875 9.0925 -11.12375 8.185 -11.1875 7.25 C-11 4 -11 4 -10 1.625 C-6.82368122 -0.95575901 -4.00554268 -0.26265854 0 0 Z " fill="#010101" transform="translate(181,55)"/>
<path d="M0 0 C0 10.56 0 21.12 0 32 C-1.485 32.495 -1.485 32.495 -3 33 C-3.99 32.34 -4.98 31.68 -6 31 C-6.34057617 27.92724609 -6.34057617 27.92724609 -6.29296875 24.0234375 C-6.28872391 23.33819 -6.28447906 22.6529425 -6.28010559 21.94692993 C-6.26329753 19.75588871 -6.22564405 17.56576368 -6.1875 15.375 C-6.17245579 13.89063827 -6.15876693 12.40626215 -6.14648438 10.921875 C-6.1133879 7.28095167 -6.06159207 3.64056522 -6 0 C-4 -1 -4 -1 0 0 Z " fill="#010101" transform="translate(217,56)"/>
<path d="M0 0 C1.65 0.33 3.3 0.66 5 1 C7.28301297 7.84903891 6.80674673 16.35244196 4 23 C3.01 23.33 2.02 23.66 1 24 C0.34 23.67 -0.32 23.34 -1 23 C-1 22.34 -1 21.68 -1 21 C-1.66 20.67 -2.32 20.34 -3 20 C-3.08112454 17.41603321 -3.14054748 14.83462432 -3.1875 12.25 C-3.21263672 11.52039063 -3.23777344 10.79078125 -3.26367188 10.0390625 C-3.30981636 6.65513396 -3.25324128 4.42141443 -1.48828125 1.484375 C-0.75158203 0.74960938 -0.75158203 0.74960938 0 0 Z " fill="#010101" transform="translate(158,65)"/>
<path d="M0 0 C-0.6875 2.4375 -0.6875 2.4375 -2 5 C-4.625 5.8125 -4.625 5.8125 -7 6 C-7.33 4.02 -7.66 2.04 -8 0 C-5.13822943 -1.43088528 -3.06624227 -0.59991697 0 0 Z " fill="#010101" transform="translate(164,56)"/>
</svg>
